<?xml version="1.0" encoding="UTF-8"?>
<svg version="1.1"
  xmlns="http://www.w3.org/2000/svg" width="700" height="275">
  <path d="M0 0 C0.66926514 0.00304138 1.33853027 0.00608276 2.02807617 0.00921631 C19.52466033 0.12608875 34.92905122 3.11937521 50.8125 10.4375 C51.84632813 10.90027344 52.88015625 11.36304688 53.9453125 11.83984375 C81.74086489 24.93931426 101.34863842 48.28962559 112.8125 76.4375 C117.29346728 88.95178033 119.17046401 100.84551447 119.12817383 114.11523438 C119.12502509 116.17111918 119.14852485 118.22554286 119.17382812 120.28125 C119.32678575 152.21503267 104.93658745 181.02230613 82.8125 203.4375 C73.15840069 213.1089628 61.73588262 220.41760814 49.3125 226 C48.57136963 226.33451172 47.83023926 226.66902344 47.06665039 227.01367188 C42.61618484 228.92482218 38.63598228 229.97419183 33.8125 230.4375 C36.03795804 198.31782945 36.03795804 198.31782945 43.45703125 190.734375 C45.48815728 189.24297052 47.56716187 187.81471468 49.6875 186.453125 C66.98788674 175.29437555 76.79175307 154.05596046 81.05859375 134.578125 C85.42702782 112.22108454 81.23943395 89.56170533 68.8125 70.4375 C55.96155057 52.35987675 37.51958655 40.66811548 15.8125 36.4375 C-1.73375847 33.50982666 -19.18804277 35.58281528 -35.1875 43.4375 C-36.58935547 44.118125 -36.58935547 44.118125 -38.01953125 44.8125 C-46.41252705 49.13225168 -53.60284492 54.68785356 -60.1875 61.4375 C-63.40597267 59.92160684 -66.28861625 58.09198685 -69.25 56.125 C-76.43567758 51.51387 -83.98799542 47.87519055 -92.1875 45.4375 C-83.94747641 27.25390296 -59.12908646 13.77967397 -41.296875 6.8671875 C-27.6789128 2.10944757 -14.4202727 -0.11488078 0 0 Z " fill="white" transform="translate(152.1875,-0.4375)"/>
  <path d="M0 0 C9.27808351 0.43237671 17.12957855 4.46417714 25 9 C25.81855469 9.4640625 26.63710937 9.928125 27.48046875 10.40625 C29.54330924 11.82265145 30.77237939 12.81703262 32 15 C32.33804821 18.80155973 31.71277744 22.26962464 31 26 C28.16930588 47.42241349 32.27054251 69.91962078 44.984375 87.7890625 C48.39235286 92.13231248 51.94735817 96.24389294 56 100 C56.84498047 100.87011719 56.84498047 100.87011719 57.70703125 101.7578125 C73.09433794 116.76264312 93.3012029 121.21643018 114 123 C113.18109276 130.03398215 112.07039584 137.01047299 110.9375 144 C110.75123047 145.15628906 110.56496094 146.31257812 110.37304688 147.50390625 C109.9166123 150.33614132 109.45889788 153.1681632 109 156 C77.32129669 156.44905378 49.39596077 144.44831672 26.67578125 122.640625 C4.48635857 100.74274218 -7.00380593 71.85649599 -7.3125 40.8125 C-7.2524397 7.2524397 -7.2524397 7.2524397 0 0 Z " fill="white" transform="translate(40,77)"/>
  <path d="M0 0 C8.34883355 6.39364052 15.51247352 10.67973348 26.22851562 10.55908203 C27.48535156 10.55263672 28.7421875 10.54619141 30.03710938 10.53955078 C33.68761035 10.37620891 37.1779363 9.89924468 40.79101562 9.37158203 C43.32915376 9.18841742 45.87216852 9.0639344 48.41601562 8.99658203 C49.68703125 8.94759766 50.95804688 8.89861328 52.26757812 8.84814453 C55.79101562 9.37158203 55.79101562 9.37158203 58.67382812 11.41845703 C61.27660104 15.04889305 61.63948962 17.5710672 62.04101562 21.99658203 C62.51429725 27.26991845 62.51429725 27.26991845 63.79101562 32.37158203 C66.04438237 33.76425401 66.04438237 33.76425401 68.72851562 34.93408203 C73.60652365 37.18709005 73.60652365 37.18709005 75.79101562 39.37158203 C76.19149007 41.6943338 76.53072602 44.0289756 76.79101562 46.37158203 C77.55414063 46.18595703 78.31726563 46.00033203 79.10351562 45.80908203 C81.79101563 45.37158203 81.79101563 45.37158203 84.79101562 46.37158203 C86.6699184 49.28848004 87.29274238 52.23809871 87.91601562 55.62158203 C88.08359375 56.51361328 88.25117188 57.40564453 88.42382812 58.32470703 C88.545 59.00017578 88.66617188 59.67564453 88.79101562 60.37158203 C89.81582031 60.60232422 90.840625 60.83306641 91.89648438 61.07080078 C93.25738708 61.39929454 94.61805209 61.72877414 95.97851562 62.05908203 C96.65205078 62.20796875 97.32558594 62.35685547 98.01953125 62.51025391 C102.81967553 63.70443614 105.8379942 65.18001181 108.79101562 69.37158203 C109.69440082 75.81572975 107.9371123 80.34891391 105.35351562 86.18408203 C90.75690287 121.00332612 79.98975416 158.49302367 86.79101562 196.37158203 C87.12101563 198.35158203 87.45101562 200.33158203 87.79101562 202.37158203 C82.51101562 202.37158203 77.23101562 202.37158203 71.79101562 202.37158203 C59.83123659 164.93227373 71.57495416 121.86830726 86.51904297 86.85131836 C87.8573306 83.712196 89.02410443 80.69501561 89.79101562 77.37158203 C89.18773437 77.27361328 88.58445313 77.17564453 87.96289062 77.07470703 C84.37656479 76.40371704 81.39446715 75.72482195 78.22851562 73.87158203 C75.94544264 69.90102031 76.48372986 65.84429708 76.79101562 61.37158203 C75.55351562 61.78408203 74.31601563 62.19658203 73.04101562 62.62158203 C69.14173526 63.56540078 69.14173526 63.56540078 66.41601562 62.05908203 C64.17200436 58.34783264 63.48067999 54.6184626 62.79101562 50.37158203 C62.18773437 50.26201172 61.58445313 50.15244141 60.96289062 50.03955078 C52.69825184 48.39995309 52.69825184 48.39995309 49.79101562 45.37158203 C48.92682339 42.77900534 48.61520631 41.03120496 48.47460938 38.35986328 C48.41176758 37.22387695 48.41176758 37.22387695 48.34765625 36.06494141 C48.30833984 35.27925781 48.26902344 34.49357422 48.22851562 33.68408203 C48.18533203 32.88679688 48.14214844 32.08951172 48.09765625 31.26806641 C47.99174194 29.30276756 47.89089012 27.33719707 47.79101562 25.37158203 C43.07684956 25.82779165 38.5362348 26.3900902 33.91601562 27.43408203 C21.62318879 29.91537682 10.3271614 28.00382537 -0.45898438 21.43408203 C-3.80324356 19.18351226 -6.98809791 16.77456621 -10.14648438 14.27392578 C-28.18957593 0.00508046 -43.9890302 -6.2125525 -67.20898438 -4.62841797 C-75.35699093 -3.66728223 -83.25979502 -1.61571531 -91.20898438 0.37158203 C-91.20898438 -5.23841797 -91.20898438 -10.84841797 -91.20898438 -16.62841797 C-85.24394775 -19.94232721 -79.95182035 -21.66083613 -73.20898438 -22.62841797 C-72.37753906 -22.75216797 -71.54609375 -22.87591797 -70.68945312 -23.00341797 C-43.68217974 -26.24267115 -20.80235295 -16.32541873 0 0 Z " fill="white" transform="translate(91.208984375,72.62841796875)"/>
  <path d="M0 0 C7.79795211 -0.04653478 15.5958711 -0.0819759 23.39392757 -0.10362434 C27.01567969 -0.11401947 30.63733613 -0.12809965 34.2590332 -0.15087891 C37.76036571 -0.17276092 41.26160674 -0.18460067 44.7630024 -0.18975449 C46.73533778 -0.1951966 48.70763685 -0.21078449 50.67991638 -0.22659302 C68.10072347 -0.22874905 68.10072347 -0.22874905 74.3125 4.8125 C74.92738281 5.29332031 75.54226563 5.77414063 76.17578125 6.26953125 C79.49829755 9.42129725 81.74074776 11.66874768 82.63671875 16.26953125 C82.79082469 27.02138384 82.79082469 27.02138384 79.125 31.5625 C71.42406782 38.77057252 62.11886462 41.04918441 52 43 C53.06927734 44.051875 53.06927734 44.051875 54.16015625 45.125 C59.14381587 50.05289839 64.02726484 54.99217251 68.5625 60.34375 C69.98784197 62.04119224 69.98784197 62.04119224 71.6875 63.59375 C73 65 73 65 73 67 C74.485 67.495 74.485 67.495 76 68 C76 68.66 76 69.32 76 70 C71.60796477 70.27433434 67.22059263 70.47254024 62.82250977 70.60424805 C61.33106593 70.65918835 59.84020441 70.73398397 58.35083008 70.82983398 C46.03780858 71.60171968 46.03780858 71.60171968 41.20263672 67.80126953 C38.89338877 64.97733036 36.94188512 62.08548776 35 59 C33.79541126 57.49047188 32.56795435 55.99874568 31.3125 54.53125 C30.20822613 53.18758809 29.10405692 51.84384017 28 50.5 C27.42894531 49.81164062 26.85789062 49.12328125 26.26953125 48.4140625 C25.72683594 47.75148437 25.18414062 47.08890625 24.625 46.40625 C24.14289063 45.82166016 23.66078125 45.23707031 23.1640625 44.63476562 C22 43 22 43 21 40 C20.34 40 19.68 40 19 40 C18.96261719 40.680625 18.92523438 41.36125 18.88671875 42.0625 C18.46114926 48.3375638 17.66126237 54.45024428 16.5 60.625 C16.36940186 61.32367188 16.23880371 62.02234375 16.10424805 62.7421875 C15.1354612 67.72907759 15.1354612 67.72907759 14 70 C5.75 70 -2.5 70 -11 70 C-9.875 57.625 -9.875 57.625 -8.96850586 52.33520508 C-8.76837387 51.15481155 -8.56824188 49.97441803 -8.36204529 48.758255 C-8.14846878 47.52447617 -7.93489227 46.29069733 -7.71484375 45.01953125 C-7.49429825 43.72552902 -7.27375275 42.43152679 -7.04652405 41.09831238 C-6.46666501 37.69640257 -5.88176055 34.29538006 -5.29571533 30.89453125 C-4.69598109 27.40873561 -4.10114092 23.92210516 -3.50585938 20.43554688 C-2.34196429 13.62288411 -1.17272426 6.81114833 0 0 Z M24 11 C23.32838005 14.10311638 22.66356325 17.20765168 22 20.3125 C21.80921875 21.19357422 21.6184375 22.07464844 21.421875 22.98242188 C21.24140625 23.82998047 21.0609375 24.67753906 20.875 25.55078125 C20.70742188 26.33106689 20.53984375 27.11135254 20.3671875 27.9152832 C19.91326853 30.13961908 19.91326853 30.13961908 20 33 C23.85402129 33.08770383 27.70778291 33.14062735 31.5625 33.1875 C33.19155273 33.22520508 33.19155273 33.22520508 34.85351562 33.26367188 C41.87820817 33.32772682 47.21271024 33.02983181 52.875 28.5 C55.52629754 24.96493662 55.43747232 21.22889906 55 17 C52.45862841 13.84045695 50.85377341 12.28459114 47 11 C45.22686149 10.91790208 43.45079225 10.89253706 41.67578125 10.90234375 C40.13374023 10.90717773 40.13374023 10.90717773 38.56054688 10.91210938 C36.95276367 10.92467773 36.95276367 10.92467773 35.3125 10.9375 C33.68731445 10.94426758 33.68731445 10.94426758 32.02929688 10.95117188 C29.35280915 10.96296257 26.67643223 10.97941937 24 11 Z " fill="white" transform="translate(332,82)"/>
  <path d="M0 0 C1.753339 -0.01441132 1.753339 -0.01441132 3.542099 -0.02911377 C4.81799393 -0.03336365 6.09388885 -0.03761353 7.40844727 -0.04199219 C8.71507828 -0.04769226 10.02170929 -0.05339233 11.36793518 -0.05926514 C14.14470814 -0.06979265 16.92145206 -0.07562179 19.69824219 -0.07910156 C23.23192189 -0.08454746 26.76520863 -0.10848267 30.29876614 -0.13707352 C33.68948438 -0.16037008 37.08015326 -0.16216301 40.47094727 -0.16699219 C41.72862411 -0.17933899 42.98630096 -0.19168579 44.28208923 -0.20440674 C55.66112221 -0.17588366 64.86550014 1.48927943 73.15454102 9.77832031 C76.16440295 13.47640773 76.42544373 16.81655073 76.34985352 21.47363281 C76.34066895 22.22475342 76.33148437 22.97587402 76.32202148 23.74975586 C76.01237811 29.7333874 74.45938385 33.38248745 69.93969727 37.49707031 C57.95629915 45.79776559 43.34017364 45.44643699 29.34985352 45.28613281 C27.81014583 45.27607678 26.27043175 45.2669556 24.73071289 45.25878906 C20.99930102 45.23871692 17.26879914 45.19953534 13.53735352 45.16113281 C12.21735352 53.08113281 10.89735352 61.00113281 9.53735352 69.16113281 C0.62735352 69.16113281 -8.28264648 69.16113281 -17.46264648 69.16113281 C-15.48612567 54.91526582 -13.29584905 40.7278028 -10.87329102 26.55126953 C-10.326406 23.34523713 -9.78696135 20.13800389 -9.24780273 16.93066406 C-8.90058713 14.88762038 -8.55294795 12.84464862 -8.20483398 10.80175781 C-8.0444162 9.84472961 -7.88399841 8.88770142 -7.71871948 7.90167236 C-7.56831207 7.02855408 -7.41790466 6.15543579 -7.26293945 5.25585938 C-7.13208954 4.48647034 -7.00123962 3.7170813 -6.86642456 2.92437744 C-5.99695836 -0.87246468 -3.44727965 0.02277483 0 0 Z M19.53735352 11.16113281 C18.30057349 15.34955594 17.19256767 19.48876277 16.41235352 23.78613281 C16.24477539 24.68589844 16.07719727 25.58566406 15.90454102 26.51269531 C15.54532122 29.10366361 15.51168382 31.54992376 15.53735352 34.16113281 C19.05802703 34.24895824 22.57841495 34.30179924 26.09985352 34.34863281 C27.58582031 34.38633789 27.58582031 34.38633789 29.10180664 34.42480469 C36.28519512 34.49639992 41.38424044 33.91000062 46.97485352 29.03613281 C49.14864364 25.03635899 49.48968334 21.61609943 48.53735352 17.16113281 C46.00766877 13.87937963 44.4600402 12.46869504 40.53735352 11.16113281 C38.9101587 11.07969426 37.27983632 11.05360261 35.65063477 11.06347656 C34.7128418 11.06669922 33.77504883 11.06992188 32.80883789 11.07324219 C31.83237305 11.08162109 30.8559082 11.09 29.84985352 11.09863281 C28.86178711 11.10314453 27.8737207 11.10765625 26.85571289 11.11230469 C24.41619878 11.12408978 21.97680662 11.1405427 19.53735352 11.16113281 Z " fill="white" transform="translate(624.462646484375,81.8388671875)"/>
  <path d="M0 0 C2.3975549 4.3323831 4.79305597 8.66589712 7.1875 13 C7.54869934 13.65359497 7.90989868 14.30718994 8.28204346 14.98059082 C13.73530098 24.85166577 19.11665684 34.75894797 24.45654297 44.69189453 C28.17171134 51.56536635 32.0462533 58.32754503 36.10693359 65.00292969 C39 69.79757061 39 69.79757061 39 72 C29.1 72 19.2 72 9 72 C7.35 69.03 5.7 66.06 4 63 C-2.11955016 62.77658906 -8.23670129 62.61378119 -14.359375 62.50561523 C-16.43922291 62.46050659 -18.5187878 62.3991991 -20.59765625 62.32104492 C-32.27917 61.33729481 -32.27917 61.33729481 -42.85742188 65.02368164 C-44.83163915 67.44393184 -44.83163915 67.44393184 -46.41210938 69.97631836 C-48 72 -48 72 -50.25976562 72.74047852 C-52.72989471 72.87953364 -55.03816358 72.79705608 -57.5 72.5625 C-58.73363281 72.5015918 -58.73363281 72.5015918 -59.9921875 72.43945312 C-61.99739874 72.33452928 -63.99952226 72.17311827 -66 72 C-64.29770523 67.87598826 -61.39910618 64.75612443 -58.5 61.4375 C-57.96463623 60.81834717 -57.42927246 60.19919434 -56.87768555 59.5612793 C-52.78285117 54.84496717 -48.57979778 50.23714066 -44.35546875 45.63671875 C-42.02448261 43.0274059 -39.81672813 40.3518718 -37.625 37.625 C-34.23613635 33.4218511 -30.68757073 29.43800786 -27 25.5 C-21.02008368 19.11242646 -15.47275366 12.41986829 -10.06640625 5.5390625 C-9.46699219 4.80429688 -8.86757813 4.06953125 -8.25 3.3125 C-7.48429687 2.34763672 -7.48429687 2.34763672 -6.703125 1.36328125 C-4.41728216 -0.46644157 -2.85453034 -0.10161476 0 0 Z M-15.91796875 31.87109375 C-24.66012161 40.1694096 -24.66012161 40.1694096 -30 50 C-21.09 50 -12.18 50 -3 50 C-4.63574428 45.01162219 -4.63574428 45.01162219 -6.7265625 40.3515625 C-7.190625 39.43310547 -7.190625 39.43310547 -7.6640625 38.49609375 C-7.98117187 37.87863281 -8.29828125 37.26117188 -8.625 36.625 C-9.11226563 35.66400391 -9.11226563 35.66400391 -9.609375 34.68359375 C-10.40257407 33.12052499 -11.20077031 31.55999378 -12 30 C-14.20797956 29.76723146 -14.20797956 29.76723146 -15.91796875 31.87109375 Z " fill="white" transform="translate(476,80)"/>
  <path d="M0 0 C32.01 0 64.02 0 97 0 C96.34 3.96 95.68 7.92 95 12 C83.78 12.33 72.56 12.66 61 13 C57.7 31.48 54.4 49.96 51 69 C42.09 69 33.18 69 24 69 C24.67725655 61.5501779 25.5071382 54.40346888 26.84765625 47.08203125 C27.02380966 46.09877365 27.19996307 45.11551605 27.38145447 44.10246277 C27.93740424 41.00499749 28.49983057 37.90875089 29.0625 34.8125 C29.44379095 32.69473911 29.82465417 30.57690117 30.20507812 28.45898438 C31.13099315 23.30492579 32.06568427 18.15257035 33 13 C22.11 12.67 11.22 12.34 0 12 C0 8.04 0 4.08 0 0 Z " fill="white" transform="translate(509,82)"/>
</svg>
