<?xml version="1.0" encoding="UTF-8" standalone="no"?>
<svg xmlns:dc="http://purl.org/dc/elements/1.1/" xmlns:cc="http://creativecommons.org/ns#" xmlns:rdf="http://www.w3.org/1999/02/22-rdf-syntax-ns#" xmlns:svg="http://www.w3.org/2000/svg" xmlns="http://www.w3.org/2000/svg" xmlns:sodipodi="http://sodipodi.sourceforge.net/DTD/sodipodi-0.dtd" xmlns:inkscape="http://www.inkscape.org/namespaces/inkscape" width="1052.3622" height="369.57944" id="svg35151" version="1.1" inkscape:version="0.48.1 " sodipodi:docname="Nouveau document 4">
  <defs id="defs35153" />
  <sodipodi:namedview inkscape:document-units="mm" pagecolor="#ffa7ff" bordercolor="#666666" borderopacity="1.0" inkscape:pageopacity="0.63921569" inkscape:pageshadow="2" inkscape:zoom="0.87679638" inkscape:cx="599.00709" inkscape:cy="246.85483" inkscape:current-layer="layer1" id="namedview35155" showgrid="false" units="mm" fit-margin-top="0" fit-margin-left="0" fit-margin-right="0" fit-margin-bottom="0" inkscape:window-width="1366" inkscape:window-height="716" inkscape:window-x="-8" inkscape:window-y="-8" inkscape:window-maximized="1" />
  <metadata id="metadata35157">
    <rdf:RDF>
      <cc:Work rdf:about="">
        <dc:format>image/svg+xml</dc:format>
        <dc:type rdf:resource="http://purl.org/dc/dcmitype/StillImage" />
        <dc:title></dc:title>
      </cc:Work>
    </rdf:RDF>
  </metadata>
  <g inkscape:label="Layer 1" inkscape:groupmode="layer" id="layer1" transform="translate(-0.87057484,-159.28043)">
    <g id="g35193" transform="matrix(1.0545808,0,0,1.0545808,-111.01564,-32.416636)">
      <g transform="matrix(13.67936,0,0,-13.67936,308.00281,269.24145)" id="g18447">
        <path inkscape:connector-curvature="0" id="path18449" style="fill:white;fill-opacity:1;fill-rule:nonzero;stroke:none" d="M 0,0 C -0.6,-1.297 -1.92,-1.965 -2.94,-1.492 -3.96,-1.019 -4.3,0.416 -3.7,1.713 -3.1,3.01 -1.78,3.678 -0.76,3.204 0.26,2.731 0.6,1.296 0,0" />
      </g>
      <g transform="matrix(13.67936,0,0,-13.67936,374.33458,284.0562)" id="g18451">
        <path inkscape:connector-curvature="0" id="path18453" style="fill:white;fill-opacity:1;fill-rule:nonzero;stroke:none" d="M 0,0 C -2.02,-1.042 -3.81,-1.759 -6.11,-1.819 -8.24,-1.874 -10.06,-2.793 -11.91,-3.748 -12.56,-4.087 -13.14,-4.688 -13.59,-5.259 -13.68,-5.379 -14.31,-6.317 -13.69,-5.996 -11.67,-4.953 -9.87,-4.232 -7.57,-4.172 -5.44,-4.117 -3.63,-3.201 -1.78,-2.248 -1.13,-1.909 -0.55,-1.308 -0.1,-0.737 -0.01,-0.617 0.62,0.32 0,0" />
      </g>
      <g transform="matrix(13.67936,0,0,-13.67936,819.88444,273.42733)" id="g18455">
        <path inkscape:connector-curvature="0" id="path18457" style="fill:white;fill-opacity:1;fill-rule:nonzero;stroke:none" d="M 0,0 2.09,0 C 2.35,0 2.54,0.213 2.54,0.47 L 2.54,2.431 C 2.54,2.688 2.35,2.898 2.09,2.898 L -0.01,2.898 C -0.26,2.889 -0.45,2.683 -0.45,2.433 L -0.45,0.466 C -0.45,0.21 -0.25,0 0,0 z M -27.32,-15.45 -19.79,-15.45 C -18.91,-15.45 -18.09,-15.398 -17.36,-15.226 -16.61,-15.053 -15.96,-14.79 -15.41,-14.447 -14.87,-14.113 -14.43,-13.671 -14.1,-13.133 -13.76,-12.584 -13.58,-11.954 -13.58,-11.26 -13.58,-10.56 -13.76,-9.944 -14.11,-9.426 -14.45,-8.926 -14.94,-8.471 -15.57,-8.072 -15.86,-7.892 -16.31,-7.658 -16.92,-7.374 -17.51,-7.102 -17.98,-6.862 -18.31,-6.664 -18.58,-6.512 -18.81,-6.327 -19,-6.11 -19.16,-5.931 -19.24,-5.723 -19.24,-5.472 -19.24,-5.291 -19.18,-5.094 -19.06,-4.884 -18.94,-4.681 -18.72,-4.498 -18.42,-4.342 -18.2,-4.231 -17.93,-4.142 -17.62,-4.081 -17.29,-4.017 -16.93,-3.984 -16.57,-3.984 -16.04,-3.984 -14.36,-3.939 -14.36,-3.939 L -10.22,-3.939 C -10.23,-4.538 -10.24,-7.593 -10.24,-7.593 L -10.27,-10.634 C -10.27,-12.249 -9.77,-13.471 -8.79,-14.267 -7.84,-15.045 -6.43,-15.45 -4.61,-15.45 L 7.69,-15.45 C 7.7,-15.451 7.71,-15.453 7.72,-15.453 L 9.52,-15.453 C 9.78,-15.453 9.98,-15.251 9.98,-14.995 L 9.96,-11.243 C 9.96,-11.243 9.94,-5.435 9.94,-3.923 L 12.51,-3.923 C 12.76,-3.923 12.97,-3.713 12.97,-3.457 L 12.97,-2.174 C 12.97,-1.918 12.76,-1.705 12.5,-1.705 L 9.93,-1.705 9.93,-1.516 C 9.93,-0.992 10,-0.515 10.14,-0.097 10.27,0.3 10.45,0.611 10.68,0.827 11.01,1.134 11.38,1.352 11.78,1.477 12.2,1.609 12.8,1.676 13.55,1.676 L 19.81,1.676 19.81,1.986 C 19.81,2.741 19.58,3.442 19.2,4.03 L 13.26,4.03 C 12.2,4.03 11.28,3.881 10.54,3.587 9.8,3.291 9.19,2.902 8.73,2.428 8.2,1.875 7.83,1.275 7.62,0.641 7.41,0.022 7.31,-0.687 7.31,-1.463 L 7.29,-11.395 C 7.29,-11.395 7.28,-12.19 7.28,-13.073 L 2.38,-13.073 2.36,-8.37 2.38,-5.523 2.41,-2.158 C 2.4,-1.91 2.2,-1.72 1.95,-1.72 L 0.13,-1.72 C -0.12,-1.729 -0.31,-1.931 -0.31,-2.181 L -0.27,-5.776 -0.26,-8.663 -0.28,-12.473 C -0.28,-12.692 -0.28,-12.889 -0.29,-13.073 L -4.3,-13.073 C -5.45,-13.073 -6.3,-12.865 -6.83,-12.432 -7.34,-12.016 -7.59,-11.304 -7.59,-10.314 L -7.59,-7.144 -7.57,-5.182 C -7.57,-5.182 -7.56,-4.411 -7.55,-3.939 L -3.44,-3.939 C -3.18,-3.939 -2.98,-3.742 -2.98,-3.485 L -2.98,-2.176 C -2.98,-1.919 -3.19,-1.721 -3.44,-1.721 L -7.55,-1.721 -7.55,0.856 C -7.55,1.112 -7.75,1.313 -8.01,1.313 L -9.69,1.313 C -9.94,1.304 -10.13,1.11 -10.13,0.859 -10.13,0.121 -10.13,-1.308 -10.13,-1.72 -10.64,-1.72 -15.24,-1.678 -15.24,-1.678 L -16.26,-1.661 C -16.84,-1.661 -17.45,-1.676 -18.08,-1.767 -18.73,-1.862 -19.33,-2.058 -19.86,-2.349 -20.49,-2.679 -21,-3.125 -21.38,-3.673 -21.76,-4.233 -21.96,-4.873 -21.96,-5.574 -21.96,-6.271 -21.79,-6.893 -21.45,-7.425 -21.12,-7.946 -20.64,-8.401 -20.02,-8.777 -19.61,-9.024 -19.09,-9.282 -18.49,-9.546 -17.92,-9.793 -17.47,-10.03 -17.15,-10.247 -16.86,-10.432 -16.64,-10.62 -16.48,-10.809 -16.36,-10.959 -16.3,-11.161 -16.3,-11.424 -16.3,-11.728 -16.38,-11.977 -16.53,-12.186 -16.7,-12.406 -16.97,-12.599 -17.33,-12.759 -17.6,-12.879 -17.96,-12.964 -18.39,-13.01 -18.84,-13.06 -19.21,-13.073 -19.49,-13.073 L -30.01,-13.073 C -30.77,-13.073 -31.56,-13.113 -32.25,-12.757 -33.06,-12.336 -33.61,-11.167 -34.1,-10.459 -35.03,-9.117 -35.86,-7.744 -37.3,-6.867 -38.99,-5.829 -40.85,-7.787 -41.96,-8.88 -43.7,-10.602 -44.98,-12.896 -46.37,-14.904 -46.7,-15.385 -46.51,-15.55 -46.04,-15.233 -45.4,-14.808 -44.82,-14.215 -44.39,-13.586 -43.9,-12.877 -43.41,-12.17 -42.92,-11.462 -42.46,-10.794 -41.97,-9.661 -41.29,-9.184 -38.78,-7.415 -36.13,-14.004 -34.67,-14.985 -33.77,-15.587 -32.18,-15.45 -31.15,-15.45 L -27.75,-15.45 C -27.75,-15.45 -27.58,-15.087 -27.54,-14.423 -27.49,-15.079 -27.32,-15.45 -27.32,-15.45" />
      </g>
    </g>
  </g>
</svg>
